Coordinates
version=1
nRows=8
nColumns=28
inDegrees=yes

Units are S.I. units (second, meters, Newtons, ...)
Angles are in degrees.

endheader
time	pelvis_tilt	pelvis_list	pelvis_rotation	pelvis_tx	pelvis_ty	pelvis_tz	hip_flexion_r	hip_adduction_r	hip_rotation_r	knee_angle_r	ankle_angle_r	subtalar_angle_r	mtp_angle_r	hip_flexion_l	hip_adduction_l	hip_rotation_l	knee_angle_l	socket_flexion	socket_adduction	socket_rotation	socket_tx	socket_ty	socket_tz	foot_flex	lumbar_extension	lumbar_bending	lumbar_rotation
      0.60000000	     -0.28848133	     -3.21373949	      6.63752454	     -0.07606116	      0.99586097	      0.29314136	     22.25882779	      3.32307984	     -8.44645775	      0.50870697	     19.58490484	    -15.80028087	    -21.62635587	    -22.94811092	     -4.77789996	     -2.09137873	      3.97558587	      1.93260415	      2.34280662	     20.04160795	      0.00000000	     -0.01029162	      0.00000000	      8.03862210	     -9.84650249	      2.78685750	     -4.19804002
      0.60416667	     -0.19920086	     -3.30940124	      6.70389882	     -0.06975031	      0.99489305	      0.29308138	     22.44467433	      3.45116874	     -8.33859176	     -0.22907254	     19.55899158	    -16.03186804	    -21.60436780	    -23.32682947	     -4.92902750	     -2.10415187	      3.82602699	      1.96137742	      2.32134014	     20.01066043	      0.00000000	     -0.01019005	      0.00000000	      8.12840346	     -9.90788620	      3.01831480	     -4.27636777
      0.60833333	     -0.10715178	     -3.40832346	      6.75054146	     -0.06337269	      0.99396379	      0.29306776	     22.64609743	      3.59290011	     -8.21037345	     -1.05359501	     19.50838034	    -16.26698789	    -21.54125065	    -23.70774179	     -5.07966752	     -2.15512944	      3.67507160	      1.99115251	      2.29452751	     19.97295957	      0.00000000	     -0.01001721	      0.00000000	      8.22093977	     -9.97327317	      3.26426981	     -4.35705771
      0.61250000	     -0.02262225	     -3.51261348	      6.78002903	     -0.05700105	      0.99299605	      0.29308639	     22.85841791	      3.74203563	     -8.04452130	     -1.91168056	     19.41437041	    -16.46860856	    -21.41086015	    -24.07515829	     -5.22612450	     -2.24242342	      3.51982871	      2.02933981	      2.28084514	     19.94657441	      0.00000000	     -0.00987939	      0.00000000	      8.29768530	    -10.02339015	      3.51093581	     -4.42133773
      0.61666667	      0.03039481	     -3.61022523	      6.85620284	     -0.05064809	      0.99200834	      0.29306119	     23.04189039	      3.87559070	     -7.77867645	     -2.67482452	     19.24557856	    -16.53319836	    -21.35236433	    -24.39061946	     -5.38301691	     -2.16720057	      3.34301497	      2.07137902	      2.26857039	     19.98740626	      0.00000000	     -0.00979709	      0.00000000	      8.32231203	    -10.03934203	      3.74455594	     -4.45533985
      0.62083333	      0.10234509	     -3.72666180	      6.87079544	     -0.04431834	      0.99103681	      0.29314221	     23.29006197	      4.04635628	     -7.56707731	     -3.62051708	     19.04021872	    -16.67144671	    -21.26510455	    -24.71943056	     -5.53654840	     -2.18701552	      3.14015536	      2.11467841	      2.24960152	     19.93747452	      0.00000000	     -0.00974225	      0.00000000	      8.35268449	    -10.08505398	      4.00524679	     -4.51179316
      0.62500000	      0.13901089	     -3.85295790	      6.74828763	     -0.03774196	      0.98993580	      0.29345703	     23.64565649	      4.27160138	     -7.37135295	     -4.73831963	     18.81314201	    -16.90234068	    -20.70864334	    -25.05643344	     -5.63799179	     -2.54058379	      2.96351571	      2.15058895	      2.23675433	     19.92163268	      0.00000000	     -0.00962838	      0.00000000	      8.40504880	    -10.06397654	      4.23981267	     -4.50299800
      0.62916667	      0.18804078	     -3.96409414	      6.81135923	     -0.03135665	      0.98899015	      0.29349374	     23.84437983	      4.42688286	     -7.06438092	     -5.59142601	     18.52088618	    -16.91057373	    -20.59333146	    -25.33218470	     -5.80200381	     -2.47197138	      2.74132665	      2.21258818	      2.20716844	     19.92689245	      0.00000000	     -0.00956041	      0.00000000	      8.38545555	    -10.07841276	      4.48853498	     -4.51833774
